<?xml version="1.0" encoding="UTF-8" standalone="no"?>
<svg
    xmlns:dc="http://purl.org/dc/elements/1.1/"
    xmlns:cc="http://creativecommons.org/ns#"
    xmlns:rdf="http://www.w3.org/1999/02/22-rdf-syntax-ns#"
    xmlns="http://www.w3.org/2000/svg"
    xmlns:sodipodi="http://sodipodi.sourceforge.net/DTD/sodipodi-0.dtd"
    xmlns:inkscape="http://www.inkscape.org/namespaces/inkscape"
    width="527.672pt"
    height="103.88094pt"
    viewBox="0 0 527.672 103.88094"
    version="1.1"
    id="svg166"
    sodipodi:docname="entwurf2.svg"
    inkscape:version="0.92.4 (5da689c313, 2019-01-14)">
  <metadata
      id="metadata170">
    <rdf:RDF>
      <cc:Work
          rdf:about="">
        <dc:format>image/svg+xml</dc:format>
        <dc:type
            rdf:resource="http://purl.org/dc/dcmitype/StillImage"/>
        <dc:title></dc:title>
      </cc:Work>
    </rdf:RDF>
  </metadata>
  <sodipodi:namedview
      pagecolor="#ffffff"
      bordercolor="#666666"
      borderopacity="1"
      objecttolerance="10"
      gridtolerance="10"
      guidetolerance="10"
      inkscape:pageopacity="0"
      inkscape:pageshadow="2"
      inkscape:window-width="2621"
      inkscape:window-height="1450"
      id="namedview168"
      showgrid="false"
      showguides="true"
      inkscape:zoom="1.3700194"
      inkscape:cx="363.30508"
      inkscape:cy="13.532514"
      inkscape:window-x="2585"
      inkscape:window-y="1882"
      inkscape:window-maximized="0"
      inkscape:current-layer="svg166"
      fit-margin-top="0"
      fit-margin-left="0"
      fit-margin-right="0"
      fit-margin-bottom="0"/>
  <defs
      id="defs147">
    <clipPath
        id="clip1">
      <path
          d="M 0,434.85547 H 541.06641 V 792 H 0 Z m 0,0"
          id="path91"
          inkscape:connector-curvature="0"/>
    </clipPath>
    <radialGradient
        id="radial0"
        gradientUnits="userSpaceOnUse"
        cx="0"
        cy="0"
        fx="0"
        fy="0"
        r="1"
        gradientTransform="matrix(274.643,0,0,274.643,270.534,613.427)">
      <stop
          offset="0"
          style="stop-color:rgb(100%,100%,100%);stop-opacity:1;"
          id="stop94"/>
      <stop
          offset="0.25"
          style="stop-color:rgb(100%,100%,100%);stop-opacity:1;"
          id="stop96"/>
      <stop
          offset="0.34375"
          style="stop-color:rgb(99.855042%,99.85199%,99.85199%);stop-opacity:1;"
          id="stop98"/>
      <stop
          offset="0.363281"
          style="stop-color:rgb(99.685669%,99.679565%,99.681091%);stop-opacity:1;"
          id="stop100"/>
      <stop
          offset="0.402344"
          style="stop-color:rgb(99.516296%,99.507141%,99.510193%);stop-opacity:1;"
          id="stop102"/>
      <stop
          offset="0.417969"
          style="stop-color:rgb(99.346924%,99.336243%,99.339294%);stop-opacity:1;"
          id="stop104"/>
      <stop
          offset="0.453125"
          style="stop-color:rgb(99.241638%,99.227905%,99.230957%);stop-opacity:1;"
          id="stop106"/>
      <stop
          offset="0.46875"
          style="stop-color:rgb(99.07074%,99.053955%,99.058533%);stop-opacity:1;"
          id="stop108"/>
      <stop
          offset="0.5"
          style="stop-color:rgb(98.985291%,98.96698%,98.971558%);stop-opacity:1;"
          id="stop110"/>
      <stop
          offset="0.515625"
          style="stop-color:rgb(98.841858%,98.820496%,98.826599%);stop-opacity:1;"
          id="stop112"/>
      <stop
          offset="0.527344"
          style="stop-color:rgb(98.672485%,98.648071%,98.654175%);stop-opacity:1;"
          id="stop114"/>
      <stop
          offset="0.554688"
          style="stop-color:rgb(98.506165%,98.478699%,98.486328%);stop-opacity:1;"
          id="stop116"/>
      <stop
          offset="0.582031"
          style="stop-color:rgb(98.257446%,98.225403%,98.234558%);stop-opacity:1;"
          id="stop118"/>
      <stop
          offset="0.632812"
          style="stop-color:rgb(98.059082%,98.023987%,98.031616%);stop-opacity:1;"
          id="stop120"/>
      <stop
          offset="0.675781"
          style="stop-color:rgb(97.952271%,97.915649%,97.924805%);stop-opacity:1;"
          id="stop122"/>
      <stop
          offset="0.683594"
          style="stop-color:rgb(97.784424%,97.743225%,97.753906%);stop-opacity:1;"
          id="stop124"/>
      <stop
          offset="0.722656"
          style="stop-color:rgb(97.615051%,97.572327%,97.583008%);stop-opacity:1;"
          id="stop126"/>
      <stop
          offset="0.738281"
          style="stop-color:rgb(97.445679%,97.398376%,97.410583%);stop-opacity:1;"
          id="stop128"/>
      <stop
          offset="0.769531"
          style="stop-color:rgb(97.218323%,97.166443%,97.180176%);stop-opacity:1;"
          id="stop130"/>
      <stop
          offset="0.796875"
          style="stop-color:rgb(97.033691%,96.97876%,96.992493%);stop-opacity:1;"
          id="stop132"/>
      <stop
          offset="0.847656"
          style="stop-color:rgb(96.769714%,96.711731%,96.725464%);stop-opacity:1;"
          id="stop134"/>
      <stop
          offset="0.882812"
          style="stop-color:rgb(96.482849%,96.418762%,96.435547%);stop-opacity:1;"
          id="stop136"/>
      <stop
          offset="0.910156"
          style="stop-color:rgb(96.315002%,96.247864%,96.264648%);stop-opacity:1;"
          id="stop138"/>
      <stop
          offset="0.953125"
          style="stop-color:rgb(96.14563%,96.075439%,96.092224%);stop-opacity:1;"
          id="stop140"/>
      <stop
          offset="0.964844"
          style="stop-color:rgb(95.974731%,95.901489%,95.9198%);stop-opacity:1;"
          id="stop142"/>
      <stop
          offset="1"
          style="stop-color:rgb(95.939636%,95.866394%,95.884705%);stop-opacity:1;"
          id="stop144"/>
    </radialGradient>
  </defs>
  <g
      id="g4760"
      transform="translate(-17.866384,-158.35782)">
    <path
        style="fill:#000000;fill-opacity:1;fill-rule:nonzero;stroke:none"
        d="M 43.17364,240.93422 C 34.48223,233.48891 29.00176,222.42641 29.00176,210.08657 h 0.008 c 0,-12.3125 5.48047,-23.36719 14.16407,-30.81641 v 7.76172 h -0.79297 c -2.51172,2.95703 -4.55078,6.32812 -5.9961,9.99219 h 6.78907 v 5.15234 h -8.38672 c -0.57813,2.54687 -0.88672,5.19531 -0.88672,7.91016 0,2.60546 0.28516,5.14453 0.82031,7.59375 h 8.45313 v 5.15625 h -6.91016 c 1.48828,3.87109 3.63281,7.42187 6.29688,10.51171 h 0.61328 z m 9.57422,6.10547 c -3.48829,-1.58203 -6.70704,-3.64844 -9.57422,-6.10547 v -7.58594 h 6.90625 l -0.0898,-0.16406 c -1.70312,-3.21094 -3.0664,-6.68359 -4.02734,-10.34765 h -2.78906 v -5.15625 h 1.73047 c -0.375,-2.46875 -0.56641,-5.00782 -0.56641,-7.59375 0,-2.69922 0.20703,-5.33985 0.61328,-7.91016 h -1.77734 v -5.15234 h 2.87109 c 0.95313,-3.53125 2.28125,-6.88282 3.92578,-9.98829 v -0.004 h -6.79687 v -7.76162 c 2.86718,-2.46484 6.08593,-4.53125 9.57422,-6.12109 v 5.49609 c -1.76563,0.94922 -3.44141,2.04297 -5.01172,3.26172 h 5.01172 v 10.63281 c -0.625,1.44922 -1.17188,2.94531 -1.64063,4.48438 h 1.64063 v 5.15234 h -2.875 c -0.45313,2.55859 -0.6836,5.20312 -0.6836,7.91016 0,2.59765 0.21485,5.13671 0.62891,7.59375 h 2.92969 v 5.15625 h -1.73438 c 0.48828,1.64843 1.07031,3.25 1.73438,4.79296 v 10.8711 h -4.70313 c 1.48438,1.125 3.05469,2.14062 4.70313,3.02734 z m 10.46093,-29.35937 v 5.15625 H 52.74786 v -5.15625 z m 0,-20.65625 v 5.15234 H 52.74786 v -5.15234 z m -10.46093,-23.875 c 3.27343,-1.4961 6.78515,-2.56641 10.46093,-3.14454 v 8.15235 c -1.33984,1.14453 -2.60937,2.39844 -3.79297,3.75 h 3.79297 v 5.125 h -7.58984 c -0.23438,0.38281 -0.46484,0.76953 -0.69141,1.16015 -0.80468,1.39063 -1.53125,2.84375 -2.17968,4.34766 v -10.63281 h 0.38281 c 1.40625,-1.97266 2.95312,-3.80469 4.6289,-5.48438 -1.73437,0.61328 -3.41015,1.35938 -5.01171,2.22266 z m 10.46093,77.01953 c -3.67968,-0.57422 -7.1875,-1.64063 -10.46093,-3.12891 v -5.51172 c 1.60156,0.85938 3.27343,1.60547 5.00781,2.21875 -1.60547,-1.60937 -3.09375,-3.36328 -4.45703,-5.24609 h -0.55078 v -10.8711 c 0.64843,1.50782 1.375,2.96094 2.17968,4.34766 0.26953,0.46484 0.54297,0.92188 0.82422,1.37109 h 7.45703 v 5.15235 h -3.58203 c 1.125,1.26172 2.32031,2.43359 3.58203,3.51172 z m 6.3711,-80.66016 v 0.004 c 2.16797,0 4.29687,0.17187 6.37109,0.49609 v 8.14844 c -1.20703,-1.03125 -2.47266,-1.97266 -3.79297,-2.82031 v 6.57031 h 3.79297 v 5.125 h -3.79297 v 9.99219 h 3.79297 v 5.15234 h -3.79297 v 15.50391 h 3.79297 v 5.15625 h -3.79297 v 10.51171 h 3.79297 v 5.15235 h -3.79297 v 6.33203 c 1.32031,-0.84766 2.58594,-1.78906 3.79297,-2.82031 v 8.15234 c -2.07422,0.32422 -4.20312,0.49219 -6.37109,0.49219 v 0.008 c -2.16797,0 -4.29688,-0.17187 -6.3711,-0.49609 v -8.15625 c 1.20703,1.03125 2.47657,1.97656 3.79297,2.82422 v -6.33594 h -3.79297 v -5.15235 h 3.79297 v -10.51171 h -3.79297 v -5.15625 h 3.79297 v -15.50391 h -3.79297 v -5.15234 h 3.79297 v -9.99219 h -3.79297 v -5.125 h 3.79297 v -6.57422 c -1.3164,0.84766 -2.58594,1.79297 -3.79297,2.82422 v -8.15235 c 2.07813,-0.32421 4.20313,-0.49609 6.3711,-0.49609 z m 16.82812,48.17188 v 5.15625 H 75.95098 v -5.15625 z m 0,-20.65625 v 5.15234 H 75.95098 v -5.15234 z m 0,50.01562 c -3.27344,1.48438 -6.78125,2.55078 -10.45703,3.125 v -8.15234 c 1.26172,-1.07813 2.45703,-2.25 3.57813,-3.51172 h -3.57813 v -5.15235 h 7.45313 c 0.28515,-0.44921 0.5625,-0.90625 0.82812,-1.37109 0.80078,-1.38281 1.52734,-2.83203 2.17578,-4.33203 v 10.85547 h -0.55078 c -1.35937,1.88281 -2.85156,3.63672 -4.46094,5.24609 1.73438,-0.61328 3.41016,-1.35547 5.01172,-2.21875 z M 75.95098,170.00844 c 3.67578,0.57813 7.18359,1.64844 10.45703,3.14063 v 5.49218 c -1.60547,-0.86328 -3.28125,-1.60547 -5.01562,-2.21875 1.67578,1.67969 3.22656,3.51172 4.63281,5.48438 h 0.38281 v 10.62109 c -0.64844,-1.5 -1.375,-2.94922 -2.17578,-4.33594 -0.22266,-0.39062 -0.45703,-0.77734 -0.69531,-1.16015 h -7.58594 v -5.125 h 3.78906 c -1.18359,-1.34766 -2.44922,-2.60156 -3.78906,-3.75 z m 10.45703,3.14063 c 3.48438,1.58593 6.70703,3.65625 9.57422,6.11718 v 7.76563 h -6.79297 v 0.004 c 1.64844,3.10547 2.96875,6.45704 3.92188,9.98829 h 2.87109 v 5.15234 h -1.77734 c 0.40625,2.57031 0.62109,5.21094 0.62109,7.91016 0,2.58593 -0.19922,5.125 -0.57422,7.59375 h 1.73047 v 5.15625 h -2.78906 c -0.95703,3.66406 -2.32031,7.13671 -4.02344,10.34765 l -0.0898,0.16406 h 6.90234 v 7.58985 c -2.86719,2.45703 -6.08594,4.51953 -9.57422,6.10156 v -5.51172 c 1.64844,-0.88672 3.21875,-1.89844 4.70313,-3.02734 h -4.70313 v -10.85557 c 0.66406,-1.55078 1.2461,-3.15625 1.73438,-4.80859 h -1.73438 v -5.15625 h 2.92969 c 0.41406,-2.45704 0.63672,-4.9961 0.63672,-7.59375 0,-2.70704 -0.23828,-5.35157 -0.69141,-7.91016 h -2.875 v -5.15234 h 1.64063 c -0.46875,-1.54297 -1.01563,-3.04688 -1.64063,-4.4961 v -10.62109 h 5.01172 c -1.57031,-1.22266 -3.25,-2.31641 -5.01172,-3.26563 z m 9.57422,6.11718 c 8.6875,7.44922 14.17188,18.50391 14.17188,30.82032 h 0.004 c 0,12.34765 -5.48047,23.41015 -14.17578,30.85156 v -7.58985 h 0.61328 c 2.66406,-3.08984 4.8125,-6.64062 6.30078,-10.51171 h -6.91406 v -5.15625 h 8.46094 c 0.53515,-2.44922 0.8164,-4.98829 0.8164,-7.59375 0,-2.71485 -0.30859,-5.36329 -0.88671,-7.91016 h -8.39063 v -5.15234 h 6.79688 c -1.45313,-3.66407 -3.49219,-7.03516 -6.00391,-9.99219 h -0.79297 v -7.76563"
        id="path153"
        inkscape:connector-curvature="0"/>
    <path
        style="fill:#0a6ba6;fill-opacity:1;fill-rule:evenodd;stroke:none"
        d="m 101.55645,169.44985 c 8.48047,6.66797 14.96094,16.03515 17.96484,27.2539 3.46485,12.92578 1.70703,26.02735 -3.97656,37.0586 l -4.25781,-2.46094 c 5.0625,-9.9375 6.60937,-21.71094 3.49609,-33.32813 -3.11719,-11.62109 -10.33984,-21.04296 -19.6914,-27.12109 l 1.79687,-3.11328 -0.0234,-0.0117 5.19532,-8.99609 4.26171,2.46484 -4.76562,8.25391"
        id="path155"
        inkscape:connector-curvature="0"/>
    <path
        style="fill:#f89e17;fill-opacity:1;fill-rule:evenodd;stroke:none"
        d="m 41.67754,253.51625 -0.0195,-0.0117 -4.58594,7.9375 -4.26171,-2.46093 4.8125,-8.33985 C 29.10726,243.9733 22.59554,234.62174 19.61117,223.4733 16.16586,210.61393 17.97445,197.48893 23.70101,186.41862 l 4.24609,2.45312 c -5.09765,9.97266 -6.69531,21.76953 -3.59765,33.33203 3.09765,11.5586 10.3789,20.98047 19.78125,27.06641 l -2.45313,4.24609"
        id="path157"
        inkscape:connector-curvature="0"/>
    <path
        style="fill:#ee263a;fill-opacity:1;fill-rule:evenodd;stroke:none"
        d="m 113.0877,238.02797 c -6.71094,10.45703 -17.19141,18.54688 -30.13672,22.01563 -12.84375,3.4414 -25.94922,1.64062 -37.00781,-4.06641 l 2.45312,-4.24609 c 9.96485,5.07812 21.74219,6.66406 33.28516,3.57031 11.63672,-3.11719 21.07031,-10.35938 27.14844,-19.73047 l 4.25781,2.45703"
        id="path159"
        inkscape:connector-curvature="0"/>
    <path
        style="fill:#78ca30;fill-opacity:1;fill-rule:evenodd;stroke:none"
        d="m 56.18145,160.12953 c 12.94531,-3.46484 26.0625,-1.69921 37.10547,4 l -2.46094,4.25782 c -9.94922,-5.07813 -21.73828,-6.63282 -33.375,-3.51563 -11.54297,3.09375 -20.94922,10.35547 -27.03906,19.73828 l -4.25,-2.45312 c 6.72265,-10.47266 17.17578,-18.58203 30.01953,-22.02735"
        id="path161"
        inkscape:connector-curvature="0"/>
    <text
        id="text3885-3"
        y="250.7075"
        x="131.63219"
        style="font-style:normal;font-variant:normal;font-weight:normal;font-stretch:normal;font-size:30px;line-height:1.25;font-family:'Bauhaus 93';-inkscape-font-specification:'Bauhaus 93, ';letter-spacing:0px;word-spacing:0px;fill:#000000;fill-opacity:1;stroke:none;stroke-width:0.75"
        xml:space="preserve"><tspan
         style="font-size:63.99999619px;fill:#000000;fill-opacity:1;stroke-width:0.75"
         y="250.7075"
         x="131.63219"
         id="tspan3883-1"
         sodipodi:role="line">retail<tspan
        id="tspan4750"
        style="fill:#0a6ba6;fill-opacity:1">planet</tspan>.io</tspan></text>
  </g>
</svg>
