<?xml version="1.0" standalone="no"?>
<!DOCTYPE svg PUBLIC "-//W3C//DTD SVG 20010904//EN"
 "http://www.w3.org/TR/2001/REC-SVG-20010904/DTD/svg10.dtd">
<svg version="1.0" xmlns="http://www.w3.org/2000/svg"
 width="2413.000000pt" height="492.000000pt" viewBox="0 0 2413.000000 492.000000"
 preserveAspectRatio="xMidYMid meet">

<g transform="translate(0.000000,492.000000) scale(0.100000,-0.100000)"
fill="#FFF" stroke="none">
<path fill="#FF6D00" d="M10 4880 l0 -40 12055 0 12055 0 0 40 0 40 -12055 0 -12055 0 0 -40z"/>
<path d="M0 1995 l0 -1995 400 0 400 0 0 635 0 635 53 0 53 0 189 -626 c104
-344 192 -630 196 -635 3 -6 167 -8 416 -7 l410 3 -207 630 -207 630 65 12
c35 7 84 22 108 33 57 28 128 110 157 180 l22 55 3 990 c2 869 1 1000 -13
1068 -22 109 -55 178 -117 243 -62 65 -120 98 -226 125 -71 18 -117 19 -889
19 l-813 0 0 -1995z m1245 1270 l25 -24 0 -631 c0 -632 -1 -661 -34 -682 -6
-4 -107 -8 -223 -8 l-213 0 0 685 0 685 210 0 c211 0 211 0 235 -25z"/>
<path d="M2390 1995 l0 -1995 765 0 c429 0 765 4 765 9 0 5 29 166 65 359 36
192 65 357 65 366 0 14 -41 16 -415 16 l-415 0 0 430 0 430 330 0 330 0 0 345
0 345 -330 0 -330 0 0 470 0 470 429 0 c237 0 432 3 434 8 2 4 -27 171 -64
372 -38 201 -69 366 -69 368 0 1 -351 2 -780 2 l-780 0 0 -1995z"/>
<path d="M4455 3978 c-6 -17 -191 -674 -200 -710 l-7 -28 266 0 266 0 0 -1620
0 -1620 410 0 410 0 0 1620 0 1620 265 0 c146 0 265 3 265 8 0 4 -43 172 -97
375 l-98 367 -738 0 c-581 0 -739 -3 -742 -12z"/>
<path d="M6621 3938 c-6 -29 -166 -915 -356 -1968 -190 -1053 -348 -1927 -351
-1943 l-6 -27 405 0 404 0 34 243 34 242 273 3 c149 1 272 0 272 -3 0 -15 71
-479 74 -482 1 -2 183 -2 403 -1 l400 3 -228 1260 c-125 693 -287 1590 -360
1993 l-132 732 -428 0 -428 0 -10 -52z m613 -2761 l7 -47 -181 0 c-153 0 -180
2 -180 15 0 24 170 1308 177 1335 3 14 43 -259 88 -615 46 -352 86 -661 89
-688z"/>
<path d="M8420 1995 l0 -1995 405 0 405 0 0 1995 0 1995 -405 0 -405 0 0
-1995z"/>
<path d="M9550 1995 l0 -1995 745 0 744 0 6 33 c3 17 34 184 69 370 34 185 60
339 58 342 -3 3 -185 5 -404 5 l-398 0 0 1620 0 1620 -410 0 -410 0 0 -1995z"/>
<path d="M11420 1995 l0 -1995 400 0 400 0 0 529 0 529 418 5 c358 3 425 6
476 21 182 53 283 149 328 311 l23 80 0 1065 0 1065 -23 75 c-52 165 -147 258
-304 295 -53 12 -195 15 -890 15 l-828 0 0 -1995z m1242 1278 c17 -15 18 -52
18 -768 0 -571 -3 -754 -12 -763 -9 -9 -74 -12 -230 -12 l-218 0 0 780 0 780
212 0 c183 0 214 -2 230 -17z"/>
<path d="M13770 1995 l0 -1995 747 2 747 3 67 360 c37 198 68 366 68 373 1 9
-85 12 -399 12 l-400 0 0 1620 0 1620 -415 0 -415 0 0 -1995z"/>
<path d="M16276 3958 c-3 -18 -163 -906 -356 -1973 -192 -1067 -352 -1950
-355 -1962 l-5 -23 405 0 c223 0 405 2 405 4 0 7 59 421 65 454 l6 32 269 0
270 0 5 -22 c5 -25 65 -446 65 -459 0 -5 183 -9 406 -9 l406 0 -5 23 c-3 12
-164 897 -357 1967 -192 1070 -353 1957 -356 1973 l-6 27 -428 0 -428 0 -6
-32z m529 -2140 c47 -366 85 -671 85 -677 0 -8 -57 -11 -180 -11 -99 0 -180 3
-180 6 0 5 177 1345 181 1372 3 17 13 -55 94 -690z"/>
<path d="M18070 1995 l0 -1995 375 0 375 0 2 810 3 810 169 -657 c93 -362 187
-727 209 -810 l40 -153 413 0 414 0 0 1995 0 1995 -415 0 -415 0 -2 -780 -3
-780 -159 627 c-88 346 -177 697 -199 781 l-40 152 -383 0 -384 0 0 -1995z"/>
<path d="M20390 1995 l0 -1995 762 2 761 3 63 340 c35 187 66 355 69 373 l6
32 -421 0 -420 0 0 430 0 430 330 0 330 0 0 345 0 345 -330 0 -330 0 0 470 0
470 435 0 c239 0 435 3 435 8 1 4 -30 172 -67 375 l-67 367 -778 0 -778 0 0
-1995z"/>
<path d="M22352 3628 c-56 -200 -102 -369 -102 -375 0 -10 60 -13 265 -13
l265 0 0 -1620 0 -1620 410 0 410 0 0 1620 0 1620 259 0 c143 0 262 3 264 8 3
4 -39 171 -93 372 l-97 365 -740 3 -739 2 -102 -362z"/>
</g>
</svg>
