<?xml version="1.0" standalone="no"?>
<!DOCTYPE svg PUBLIC "-//W3C//DTD SVG 20010904//EN"
 "http://www.w3.org/TR/2001/REC-SVG-20010904/DTD/svg10.dtd">
<svg version="1.0" xmlns="http://www.w3.org/2000/svg"
 width="1196.000000pt" height="1196.000000pt" viewBox="0 0 1196.000000 1196.000000"
 preserveAspectRatio="xMidYMid meet">

<g transform="translate(0.000000,1196.000000) scale(0.100000,-0.100000)"
fill="#595a5e" stroke="none">
<path d="M5620 11949 c-2128 -126 -4032 -1384 -4990 -3298 -336 -672 -528
-1346 -607 -2131 -13 -132 -17 -265 -17 -540 0 -392 11 -551 60 -885 364
-2454 2226 -4439 4653 -4961 1165 -250 2389 -146 3495 298 191 76 550 250 737
358 436 250 836 553 1203 910 939 916 1549 2105 1740 3395 49 334 60 493 60
885 0 392 -11 551 -60 885 -364 2453 -2226 4439 -4653 4961 -520 112 -1087
155 -1621 123z m-150 -1439 c25 -25 26 -72 3 -92 -10 -9 -88 -51 -173 -93 -85
-42 -212 -108 -281 -146 -142 -78 -181 -86 -240 -46 -25 17 -35 31 -37 55 -4
43 29 95 72 116 108 51 589 226 624 226 6 0 21 -9 32 -20z m200 -220 c25 -25
25 -60 0 -93 -11 -13 -64 -54 -117 -90 -54 -35 -163 -111 -242 -167 -123 -89
-150 -104 -190 -107 -34 -3 -54 1 -78 16 -73 46 -81 114 -19 169 19 16 152 89
295 161 278 139 312 150 351 111z m-1084 -175 c44 -33 56 -63 44 -106 -14 -49
-41 -72 -225 -194 -93 -62 -216 -145 -273 -184 -88 -61 -109 -71 -146 -71 -34
0 -50 7 -83 35 -60 51 -87 98 -80 141 13 78 52 105 452 311 223 115 243 120
311 68z m1336 -35 c25 -26 29 -36 24 -63 -6 -34 -9 -37 -276 -286 -190 -178
-225 -195 -310 -151 -71 36 -97 98 -65 160 15 29 169 142 374 275 166 107 201
116 253 65z m290 -177 c24 -22 41 -69 34 -98 -3 -13 -44 -71 -89 -127 -46 -57
-120 -151 -165 -210 -90 -116 -130 -148 -186 -148 -101 0 -199 107 -163 177
24 46 371 373 428 404 56 30 108 31 141 2z m-3761 -36 c37 -25 58 -70 58 -128
1 -55 -45 -116 -145 -194 -82 -64 -176 -140 -332 -272 -34 -29 -70 -53 -80
-53 -24 0 -79 35 -91 58 -6 11 -13 44 -17 74 -8 72 21 141 85 200 115 108 433
338 465 338 13 0 38 -10 57 -23z m2372 -23 c92 -47 128 -124 92 -194 -9 -16
-66 -71 -127 -122 -62 -51 -175 -148 -251 -215 -79 -70 -153 -127 -173 -133
-53 -18 -112 9 -190 84 -85 84 -94 129 -38 195 36 43 437 319 551 381 46 24
93 26 136 4z m1697 -94 c26 -14 60 -73 60 -104 0 -29 -40 -113 -162 -339 -112
-208 -153 -235 -272 -179 -104 49 -133 120 -80 198 45 65 262 340 296 374 52
53 116 73 158 50z m-2850 -125 c17 -9 48 -38 69 -65 91 -115 78 -163 -85 -295
-60 -49 -162 -136 -228 -194 -176 -157 -194 -170 -241 -171 -53 0 -98 37 -164
136 -52 78 -59 102 -40 151 20 54 104 122 428 346 166 116 195 126 261 92z
m3207 -20 c31 -22 66 -83 65 -114 -1 -14 -32 -129 -71 -255 -59 -194 -75 -234
-102 -262 -53 -54 -79 -60 -152 -34 -71 26 -122 69 -138 117 -10 31 -5 44 98
244 113 220 150 275 205 302 41 21 68 21 95 2z m-1691 -77 c82 -55 113 -124
82 -181 -6 -12 -57 -71 -112 -132 -56 -60 -146 -161 -201 -223 -111 -126 -145
-152 -199 -152 -45 0 -60 8 -153 76 -77 57 -103 94 -103 146 0 28 12 45 88
118 99 95 388 336 436 362 51 28 106 23 162 -14z m2076 -55 c57 -61 61 -72 49
-176 -49 -452 -44 -420 -73 -453 -45 -51 -76 -59 -156 -40 -88 23 -143 75
-142 138 0 13 31 126 69 251 71 236 82 259 146 298 44 28 67 23 107 -18z
m-4666 -29 c28 -19 104 -162 104 -198 0 -50 -44 -107 -163 -213 -67 -59 -177
-161 -244 -225 -107 -104 -126 -118 -156 -118 -59 0 -96 35 -139 130 -42 96
-46 134 -19 188 29 57 212 222 451 406 81 63 107 68 166 30z m3004 -193 c69
-41 110 -95 110 -143 0 -14 -27 -64 -61 -114 -33 -49 -106 -156 -161 -239
-109 -163 -139 -199 -180 -221 -46 -24 -79 -16 -183 42 -115 65 -142 87 -161
132 -12 28 -12 37 1 68 25 60 402 470 457 497 56 28 104 22 178 -22z m-3907
-1 c33 -26 50 -79 51 -155 0 -79 -14 -104 -136 -233 -55 -59 -141 -155 -191
-215 -94 -110 -119 -127 -165 -111 -43 15 -63 63 -65 151 -2 132 38 194 297
461 104 106 123 122 151 122 18 0 44 -9 58 -20z m2272 9 c50 -14 179 -137 195
-185 23 -68 12 -82 -242 -343 -132 -135 -254 -255 -272 -265 -57 -34 -94 -18
-203 87 -52 51 -101 104 -109 119 -20 40 -17 89 9 126 48 69 470 427 538 456
42 18 36 18 84 5z m2092 -248 c88 -43 128 -88 126 -145 0 -18 -55 -142 -132
-298 -119 -243 -134 -270 -171 -294 -23 -15 -53 -27 -69 -27 -39 0 -253 99
-284 131 -26 27 -47 71 -47 97 0 16 255 401 319 482 45 58 99 92 147 93 16 0
66 -18 111 -39z m-3240 8 c39 -15 67 -42 134 -132 64 -85 78 -130 58 -180 -7
-17 -65 -86 -129 -152 -63 -66 -165 -176 -225 -244 -116 -129 -144 -151 -196
-151 -26 0 -43 10 -83 53 -83 85 -156 202 -156 247 0 61 15 88 103 178 104
107 350 331 401 366 43 29 53 31 93 15z m3715 -199 c88 -32 132 -66 154 -118
14 -31 11 -44 -52 -250 -36 -119 -75 -246 -85 -281 -22 -77 -40 -106 -82 -131
-46 -28 -70 -25 -212 24 -138 48 -159 62 -185 120 -23 49 -25 44 120 346 114
239 138 277 194 304 43 21 54 20 148 -14z m-4695 -39 c23 -14 43 -45 77 -117
69 -146 63 -181 -63 -323 -36 -42 -121 -144 -189 -228 -67 -84 -131 -157 -143
-163 -27 -15 -72 -4 -101 25 -29 29 -99 197 -106 251 -3 28 2 55 16 85 23 53
200 266 326 396 100 102 121 111 183 74z m5335 -180 c21 -22 40 -51 44 -65 3
-13 -12 -153 -35 -311 -43 -308 -50 -328 -111 -360 -41 -21 -65 -19 -203 16
-131 33 -161 51 -192 115 -17 35 -13 48 136 544 22 73 47 105 102 130 37 17
41 17 130 -6 80 -20 97 -28 129 -63z m-3959 -32 c12 -6 70 -59 130 -118 162
-160 162 -173 5 -363 -52 -62 -144 -178 -205 -258 -62 -80 -125 -153 -141
-162 -36 -22 -74 -23 -110 -4 -32 17 -255 242 -271 273 -17 33 -13 95 8 128
35 56 402 448 455 487 42 30 91 36 129 17z m-2169 -60 c26 -12 38 -34 56 -109
21 -81 -1 -146 -90 -269 -26 -36 -82 -121 -125 -189 -82 -128 -98 -142 -147
-123 -41 15 -52 47 -53 142 0 83 2 90 44 174 49 97 213 353 239 373 20 15 44
15 76 1z m1072 -209 c29 -19 174 -202 203 -257 14 -27 14 -98 1 -123 -6 -11
-79 -111 -163 -223 -83 -111 -167 -226 -186 -254 -53 -79 -116 -104 -169 -67
-25 18 -121 141 -181 234 -46 71 -54 126 -24 183 34 68 320 425 389 488 49 44
80 49 130 19z m1718 -255 c222 -164 231 -190 121 -353 -39 -56 -119 -178 -178
-270 -59 -92 -116 -179 -127 -193 -26 -37 -101 -72 -135 -63 -15 4 -79 45
-143 91 -210 153 -262 206 -262 266 0 52 19 79 277 404 225 282 224 282 447
118z m-2611 -33 c11 -9 42 -64 69 -122 45 -95 49 -111 46 -161 -4 -49 -14 -72
-105 -220 -55 -90 -120 -197 -144 -238 -56 -94 -86 -118 -131 -105 -41 12 -67
51 -109 157 -37 96 -46 160 -29 213 27 86 265 474 303 492 28 14 75 7 100 -16z
m4962 -76 c92 -32 167 -64 182 -78 30 -27 53 -70 53 -96 0 -22 -175 -603 -190
-632 -18 -34 -80 -74 -114 -73 -53 1 -385 123 -421 155 -44 38 -61 80 -48 121
5 18 63 153 129 301 78 177 129 279 149 299 25 26 76 55 96 57 4 0 77 -24 164
-54z m-3679 -126 c30 -12 267 -233 302 -283 14 -21 22 -46 22 -74 0 -38 -13
-63 -113 -216 -63 -94 -142 -218 -176 -274 -75 -123 -107 -153 -162 -153 -34
0 -49 9 -116 69 -43 38 -110 102 -149 142 -135 140 -137 181 -20 352 153 224
299 411 336 429 41 21 41 21 76 8z m4325 -69 c87 -22 169 -47 183 -57 15 -9
38 -35 51 -58 l24 -41 -49 -293 c-27 -162 -54 -311 -60 -332 -11 -42 -65 -96
-105 -106 -15 -4 -101 13 -216 42 -163 40 -198 52 -227 78 -72 63 -72 57 28
398 50 166 96 314 103 327 10 21 90 81 106 81 4 0 76 -18 162 -39z m-2397
-103 c177 -107 226 -152 226 -207 0 -14 -50 -118 -111 -231 -61 -113 -132
-248 -159 -300 -53 -105 -67 -121 -125 -146 l-39 -16 -90 46 c-159 82 -328
189 -360 229 -47 59 -42 94 29 207 137 220 295 448 334 483 69 62 93 57 295
-65z m-3858 4 c23 -15 34 -53 34 -117 0 -70 -1 -72 -103 -305 l-55 -125 -43 0
c-39 0 -45 4 -58 30 -21 43 -1 144 64 327 66 182 75 198 118 198 17 0 37 -4
43 -8z m4473 -326 c75 -35 161 -75 191 -89 59 -26 116 -81 126 -124 5 -20 -23
-100 -122 -345 -70 -175 -137 -327 -149 -337 -26 -24 -79 -51 -100 -51 -23 0
-433 189 -473 217 -37 28 -62 71 -62 109 0 40 279 573 329 628 28 30 74 55
105 56 10 0 80 -29 155 -64z m-1858 -88 c68 -52 145 -109 171 -127 52 -35 98
-103 98 -145 0 -16 -42 -101 -104 -209 -57 -100 -129 -230 -160 -289 -67 -126
-108 -168 -165 -168 -34 0 -59 15 -200 120 -197 146 -247 191 -262 237 -22 66
-15 80 216 437 190 295 203 299 406 144z m-2456 -44 c9 -4 41 -57 72 -118 74
-145 75 -177 11 -326 -25 -58 -67 -160 -93 -228 -28 -71 -55 -127 -66 -132
-10 -6 -34 -10 -53 -10 -43 0 -50 10 -100 136 -51 129 -50 188 5 348 53 154
110 291 132 316 17 20 59 26 92 14z m5101 -190 c128 -44 229 -84 242 -97 30
-28 52 -70 52 -99 0 -13 -43 -165 -95 -338 -93 -310 -96 -316 -136 -352 -22
-20 -50 -38 -62 -40 -21 -4 -428 128 -496 161 -48 23 -95 84 -95 124 0 34 232
606 262 647 14 18 93 70 107 70 1 0 100 -34 221 -76z m-2003 -202 c73 -43 167
-98 210 -121 88 -48 137 -104 137 -154 0 -18 -44 -124 -106 -256 -58 -124
-120 -257 -137 -296 -34 -77 -58 -110 -99 -131 -57 -30 -70 -24 -413 179 -141
84 -185 129 -185 192 0 33 75 182 213 423 161 283 172 287 380 164z m2783 -33
c183 -45 213 -56 242 -83 42 -39 55 -63 54 -97 0 -15 -28 -169 -62 -341 l-61
-313 -44 -42 c-35 -34 -51 -43 -79 -43 -42 0 -469 106 -508 126 -34 18 -78 81
-78 112 0 12 42 165 94 338 68 229 101 323 118 341 27 30 88 64 104 58 7 -2
106 -27 220 -56z m784 -159 c199 -30 206 -32 238 -63 19 -18 38 -41 44 -52 15
-26 11 -120 -13 -365 -36 -367 -36 -368 -106 -411 -27 -17 -44 -20 -76 -15
-23 3 -105 15 -182 26 -307 43 -309 44 -350 114 l-23 41 49 265 c27 146 54
296 61 333 12 73 33 108 82 138 40 24 34 24 276 -11z m777 -81 c196 -13 212
-18 255 -88 21 -32 21 -46 21 -361 0 -320 0 -328 -22 -363 -39 -63 -74 -77
-192 -77 -57 0 -162 5 -232 10 -140 10 -158 18 -204 85 l-23 33 32 339 c34
369 35 373 102 414 37 22 35 22 263 8z m-3537 -153 c113 -52 222 -101 242
-109 44 -18 98 -88 98 -127 0 -15 -52 -164 -115 -331 -104 -272 -120 -308
-155 -341 -62 -59 -68 -59 -257 25 -320 142 -377 172 -406 215 -16 22 -27 52
-27 71 0 33 58 168 208 483 60 126 76 151 112 177 24 17 55 31 69 31 14 0 118
-42 231 -94z m-4194 -104 c22 -13 92 -160 99 -205 5 -32 1 -69 -15 -128 -12
-46 -30 -127 -41 -179 -24 -115 -38 -140 -82 -140 -47 0 -55 9 -84 91 -23 63
-27 89 -26 179 1 112 35 333 55 358 22 26 72 39 94 24z m4982 -216 c97 -35
214 -76 259 -90 88 -29 136 -70 148 -126 7 -30 -173 -645 -200 -687 -21 -32
-73 -63 -106 -63 -66 0 -561 179 -602 218 -33 31 -57 73 -57 100 0 19 209 582
235 632 20 38 82 80 118 80 15 0 108 -29 205 -64z m952 -291 l255 -64 38 -42
c27 -30 37 -51 37 -74 0 -32 -50 -269 -90 -426 -11 -42 -26 -108 -35 -148 -18
-85 -42 -124 -95 -151 l-38 -19 -153 35 c-85 19 -218 52 -297 73 -151 40 -178
55 -207 117 -16 34 -15 38 76 347 50 171 98 325 106 340 18 37 101 90 128 82
11 -3 135 -35 275 -70z m837 -170 c126 -20 242 -38 259 -41 34 -5 101 -66 110
-99 5 -19 -67 -565 -86 -649 -9 -41 -48 -89 -92 -112 -29 -15 -52 -12 -447 50
-168 26 -191 36 -227 100 l-21 38 22 106 c13 59 45 206 71 327 30 143 54 230
67 248 23 33 74 67 99 67 10 0 120 -16 245 -35z m967 -102 l170 -6 43 -43 c42
-42 43 -45 43 -106 -1 -35 -5 -94 -10 -133 -5 -38 -14 -153 -20 -255 -6 -102
-15 -199 -21 -217 -5 -17 -30 -50 -54 -72 l-45 -41 -139 0 c-192 0 -389 17
-427 36 -46 23 -79 72 -77 114 1 19 22 173 47 342 47 326 49 332 111 378 27
20 38 21 120 16 50 -3 166 -9 259 -13z m-7799 -296 c4 -19 5 -47 3 -63 -3 -27
-7 -29 -47 -32 -28 -2 -47 1 -52 10 -10 16 -12 102 -2 111 3 4 26 7 49 7 41 0
43 -2 49 -33z m332 -427 c45 -60 87 -127 94 -149 9 -30 10 -82 3 -201 -11
-177 -17 -193 -81 -206 -30 -6 -33 -3 -81 67 -96 144 -109 185 -118 376 -8
154 1 197 40 213 48 20 59 12 143 -100z m6308 -185 c121 -19 244 -37 272 -41
45 -6 58 -13 93 -50 31 -34 40 -52 40 -79 0 -58 -110 -587 -129 -620 -9 -16
-35 -43 -58 -58 l-40 -29 -189 27 c-104 14 -232 34 -284 45 -52 10 -112 21
-132 24 -42 8 -105 64 -114 102 -7 25 142 631 159 653 7 8 30 27 52 43 33 24
46 29 75 24 19 -4 134 -22 255 -41z m895 -100 c91 -8 204 -15 251 -15 94 0
116 -10 160 -71 21 -30 21 -30 5 -152 -37 -274 -77 -492 -95 -516 -9 -14 -34
-38 -54 -55 l-37 -30 -284 11 c-318 12 -338 17 -383 85 l-26 38 63 312 c66
328 69 338 132 385 38 27 48 28 268 8z m-6712 -242 c115 -110 150 -149 170
-192 l25 -55 -18 -175 c-10 -97 -22 -185 -27 -197 -12 -25 -48 -44 -82 -44
-38 0 -247 224 -288 308 -32 65 -33 69 -36 226 -3 100 0 175 7 198 12 38 47
67 85 68 11 0 81 -59 164 -137z m-444 -346 c57 -74 85 -174 66 -231 -11 -33
-15 -36 -50 -36 -35 0 -39 3 -58 43 -51 110 -69 210 -42 242 21 25 57 18 84
-18z m1013 -130 c76 -56 166 -122 201 -146 34 -24 76 -64 92 -89 36 -55 37
-77 11 -291 -18 -144 -21 -155 -47 -182 -57 -57 -72 -52 -239 73 -166 124
-233 187 -259 243 -16 32 -17 62 -14 230 3 176 5 195 23 215 18 20 68 49 87
50 4 0 69 -46 145 -103z m4929 -132 c456 -74 444 -71 470 -96 14 -13 33 -37
41 -52 16 -32 6 -83 -81 -412 -43 -161 -47 -172 -85 -207 -22 -21 -52 -40 -68
-44 -29 -8 -218 16 -503 62 -155 25 -155 25 -192 64 -21 21 -40 49 -43 62 -4
14 23 130 69 297 61 225 79 279 102 302 34 36 83 60 110 54 11 -2 92 -16 180
-30z m1154 -125 c124 -6 235 -16 247 -20 12 -5 36 -28 52 -50 25 -34 28 -46
21 -73 -4 -18 -34 -140 -66 -272 -56 -230 -60 -242 -96 -281 -64 -69 -67 -69
-362 -56 -322 15 -341 19 -383 68 -38 43 -40 63 -13 153 10 36 42 154 69 261
28 107 59 206 69 220 10 14 34 36 53 48 30 22 42 23 109 19 41 -3 176 -11 300
-17z m-6643 -84 c114 -109 148 -164 163 -262 16 -115 13 -152 -15 -179 -42
-43 -65 -34 -154 61 -92 97 -130 164 -160 282 -27 102 -27 146 -1 172 37 37
62 26 167 -74z m1247 -120 c67 -41 176 -104 241 -141 130 -72 175 -109 201
-163 15 -32 15 -41 0 -116 -8 -44 -22 -125 -31 -179 -18 -115 -25 -131 -68
-157 -58 -36 -45 -41 -358 146 -158 94 -213 141 -238 203 -21 50 13 391 42
428 16 20 66 51 86 53 2 0 59 -33 125 -74z m-672 -347 c187 -137 202 -150 233
-213 22 -44 25 -63 25 -159 0 -59 -5 -117 -11 -129 -13 -23 -75 -52 -92 -41
-7 4 -64 46 -127 93 -132 100 -193 162 -221 226 -36 81 -61 259 -41 291 7 12
61 43 74 43 4 0 76 -50 160 -111z m1613 -149 c349 -160 345 -158 379 -213 l29
-47 -39 -183 c-43 -198 -55 -223 -124 -251 -35 -14 -37 -13 -260 88 -281 128
-298 137 -337 178 -63 66 -66 84 -37 279 14 96 32 184 40 197 17 26 71 62 94
62 9 0 124 -49 255 -110z m3055 -69 c91 -16 206 -34 255 -40 205 -25 219 -31
255 -101 l17 -35 -74 -225 c-79 -241 -95 -270 -170 -305 -33 -16 -47 -15 -281
20 -406 59 -415 62 -452 135 l-20 40 71 228 c58 186 77 233 103 261 36 38 82
62 111 55 11 -2 94 -17 185 -33z m1110 -126 c96 -8 202 -15 236 -15 55 0 63
-3 91 -32 54 -58 54 -61 13 -182 -85 -253 -119 -328 -167 -374 -25 -23 -57
-45 -71 -49 -14 -3 -151 -1 -304 4 -310 12 -321 15 -362 85 l-21 37 74 224
c41 123 82 233 90 243 9 11 32 31 51 46 31 25 43 28 115 28 44 0 159 -7 255
-15z m-5123 -84 c81 -48 175 -102 208 -119 33 -17 77 -48 97 -69 59 -61 67
-90 59 -231 -6 -120 -7 -125 -34 -148 -52 -44 -66 -42 -194 31 -252 144 -338
212 -362 288 -14 43 -29 236 -21 267 6 25 62 70 86 70 6 0 79 -40 161 -89z
m1733 -44 c63 -24 201 -72 305 -107 170 -56 194 -67 227 -102 21 -21 41 -50
44 -63 4 -15 -12 -87 -43 -192 -41 -144 -53 -172 -83 -204 -50 -53 -77 -57
-174 -27 -165 52 -492 171 -518 189 -37 27 -68 80 -68 118 0 51 67 338 86 366
16 24 76 64 99 65 6 0 62 -20 125 -43z m1140 -351 c146 -36 281 -71 301 -76
47 -13 109 -80 109 -118 0 -15 -21 -83 -46 -152 -25 -69 -51 -139 -56 -157
-14 -40 -62 -87 -108 -106 -33 -14 -47 -12 -235 33 -265 63 -395 98 -422 116
-12 7 -33 33 -47 57 l-26 43 51 175 c52 177 66 204 124 241 38 24 34 24 355
-56z m-1889 -111 c164 -69 171 -74 205 -131 l27 -46 -19 -116 c-17 -106 -21
-118 -52 -148 -51 -49 -69 -50 -180 -3 -166 71 -356 164 -389 193 -17 14 -41
47 -53 71 -19 40 -21 58 -18 159 3 106 5 116 28 141 14 15 38 33 55 40 27 12
37 9 146 -45 63 -32 176 -84 250 -115z m2656 -59 c37 -8 167 -28 288 -45 121
-17 234 -38 250 -46 44 -22 79 -78 72 -114 -11 -51 -135 -313 -164 -344 -35
-37 -99 -67 -133 -62 -14 3 -104 16 -200 30 -292 42 -358 55 -385 77 -29 22
-55 68 -55 95 0 21 93 283 118 332 18 36 93 91 123 91 10 0 48 -6 86 -14z
m1028 -132 c28 -3 138 -9 245 -13 217 -8 234 -13 264 -76 l17 -34 -80 -160
c-83 -165 -121 -214 -188 -246 -34 -16 -55 -16 -311 -3 l-274 14 -34 37 c-19
21 -34 47 -34 61 0 14 26 85 59 158 32 73 61 143 65 154 9 30 73 94 110 110
30 13 50 13 161 -2z m-3079 -48 c66 -24 194 -69 284 -100 164 -57 199 -76 226
-128 20 -38 18 -58 -16 -167 -36 -117 -84 -171 -153 -171 -25 0 -309 94 -454
150 -84 32 -133 73 -155 129 -14 38 18 233 45 268 21 27 74 63 93 63 6 0 64
-20 130 -44z m874 -277 c41 -11 156 -41 255 -65 99 -25 197 -50 218 -55 42
-11 97 -76 97 -114 0 -23 -74 -199 -94 -224 -28 -36 -90 -71 -126 -71 -20 0
-110 18 -199 40 -352 87 -373 95 -411 171 -18 35 -18 37 6 134 31 122 44 148
91 180 46 30 67 31 163 4z m1051 -239 c90 -16 205 -34 254 -40 101 -12 131
-27 158 -83 l18 -36 -57 -96 c-60 -100 -118 -159 -173 -175 -31 -9 -262 19
-463 56 -80 15 -90 19 -123 55 -19 22 -35 50 -35 63 0 36 84 208 116 237 65
59 81 60 305 19z m859 -105 c58 -8 165 -15 238 -15 73 0 142 -5 153 -10 21
-12 49 -60 49 -85 0 -24 -132 -197 -176 -230 -68 -52 -93 -56 -301 -45 -265
14 -278 16 -308 52 -42 50 -41 65 15 163 62 108 72 120 129 157 51 32 58 33
201 13z"/>
</g>
</svg>
